<svg width="20" height="17" viewBox="0 0 20 17" fill="none" xmlns="http://www.w3.org/2000/svg">
<path d="M17.5 0.642822H2.5C1.83718 0.643531 1.2017 0.907151 0.733016 1.37584C0.264329 1.84453 0.000709029 2.48 0 3.14282V13.8571C0.000709029 14.5199 0.264329 15.1554 0.733016 15.6241C1.2017 16.0928 1.83718 16.3564 2.5 16.3571H17.5C18.1628 16.3564 18.7983 16.0928 19.267 15.6241C19.7357 15.1554 19.9993 14.5199 20 13.8571V3.14282C19.9993 2.48 19.7357 1.84453 19.267 1.37584C18.7983 0.907151 18.1628 0.643531 17.5 0.642822ZM16.867 4.77809L10.4384 9.77809C10.313 9.87554 10.1588 9.92845 10 9.92845C9.84122 9.92845 9.68696 9.87554 9.56161 9.77809L3.13304 4.77809C3.05751 4.72105 2.99407 4.64957 2.9464 4.5678C2.89873 4.48603 2.86779 4.39561 2.85538 4.30178C2.84296 4.20795 2.84932 4.11259 2.87408 4.02124C2.89884 3.92988 2.9415 3.84436 2.9996 3.76964C3.05769 3.69492 3.13006 3.6325 3.21249 3.58599C3.29492 3.53948 3.38577 3.50981 3.47977 3.49872C3.57376 3.48762 3.66903 3.49532 3.76002 3.52136C3.85102 3.5474 3.93593 3.59127 4.00982 3.65041L10 8.30934L15.9902 3.65041C16.14 3.5373 16.3283 3.48768 16.5143 3.51231C16.7004 3.53693 16.8693 3.6338 16.9845 3.78198C17.0997 3.93016 17.152 4.11774 17.13 4.30414C17.108 4.49055 17.0135 4.6608 16.867 4.77809Z" fill="black" fill-opacity="0.8"/>
</svg>
