<svg width="31" height="30" viewBox="0 0 31 30" fill="none" xmlns="http://www.w3.org/2000/svg">
<path d="M26.7333 0H3.4C1.56667 0 0.0666656 1.5 0.0666656 3.33333V26.6667C0.0666656 28.5017 1.56667 30 3.4 30H15.0667V18.3333H11.7333V14.2083H15.0667V10.7917C15.0667 7.185 17.0867 4.65167 21.3433 4.65167L24.3483 4.655V8.99667H22.3533C20.6967 8.99667 20.0667 10.24 20.0667 11.3933V14.21H24.3467L23.4 18.3333H20.0667V30H26.7333C28.5667 30 30.0667 28.5017 30.0667 26.6667V3.33333C30.0667 1.5 28.5667 0 26.7333 0Z" fill="black" fill-opacity="0.8"/>
</svg>
