<svg width="26" height="26" viewBox="0 0 26 26" fill="none" xmlns="http://www.w3.org/2000/svg">
<path fill-rule="evenodd" clip-rule="evenodd" d="M11.465 1.3956C11.9039 1.03113 12.444 0.833252 13 0.833252C13.556 0.833252 14.0962 1.03113 14.535 1.3956L25.015 10.0966C25.9563 10.88 25.4363 12.4881 24.2463 12.4881H23V23.1642C23 23.8721 22.7366 24.551 22.2678 25.0515C21.7989 25.5521 21.163 25.8333 20.5 25.8333H5.50001C4.83697 25.8333 4.20108 25.5521 3.73224 25.0515C3.2634 24.551 3.00001 23.8721 3.00001 23.1642V12.4881H1.75376C0.562508 12.4881 0.0450077 10.8787 0.985008 10.098L11.465 1.3956Z" fill="black" fill-opacity="0.8"/>
</svg>
