<svg width="31" height="30" viewBox="0 0 31 30" fill="none" xmlns="http://www.w3.org/2000/svg">
<path d="M17.4753 0.00208964C18.5699 -0.00211048 19.6644 0.00889013 20.7587 0.0350881L21.0497 0.0455875C21.3856 0.0575869 21.7171 0.0725861 22.1176 0.0905851C23.7135 0.165581 24.8025 0.417569 25.7579 0.78805C26.7479 1.16903 27.5818 1.685 28.4158 2.51896C29.1783 3.26833 29.7685 4.1748 30.1452 5.17532C30.5157 6.13078 30.7677 7.22122 30.8427 8.81714C30.8607 9.21612 30.8757 9.5491 30.8877 9.88508L30.8967 10.1761C30.9233 11.2698 30.9348 12.3639 30.9312 13.4579L30.9327 14.5768V16.5417C30.9364 17.6363 30.9249 18.7308 30.8982 19.8251L30.8892 20.1161C30.8772 20.452 30.8622 20.7835 30.8442 21.184C30.7692 22.7799 30.5142 23.8689 30.1452 24.8243C29.7697 25.8259 29.1794 26.7331 28.4158 27.4822C27.6658 28.2446 26.7588 28.8347 25.7579 29.2116C24.8025 29.5821 23.7135 29.8341 22.1176 29.9091C21.7171 29.9271 21.3856 29.9421 21.0497 29.9541L20.7587 29.9631C19.6644 29.9897 18.5699 30.0012 17.4753 29.9976L16.3564 29.9991H14.393C13.2985 30.0027 12.2039 29.9912 11.1097 29.9646L10.8187 29.9556C10.4626 29.9426 10.1066 29.9276 9.75075 29.9106C8.15483 29.8356 7.06588 29.5806 6.10893 29.2116C5.10801 28.8356 4.20139 28.2454 3.45257 27.4822C2.68918 26.7326 2.09848 25.8256 1.72166 24.8243C1.35118 23.8689 1.09919 22.7799 1.0242 21.184C1.00749 20.8281 0.992491 20.4721 0.979197 20.1161L0.971698 19.8251C0.944045 18.7309 0.931544 17.6363 0.9342 16.5417V13.4579C0.930014 12.3639 0.941014 11.2698 0.967198 10.1761L0.977698 9.88508C0.989697 9.5491 1.0047 9.21612 1.0227 8.81714C1.09769 7.21972 1.34968 6.13228 1.72016 5.17532C2.0972 4.17431 2.68906 3.26809 3.45407 2.52046C4.20237 1.75663 5.10843 1.16539 6.10893 0.78805C7.06588 0.417569 8.15333 0.165581 9.75075 0.0905851L10.8187 0.0455875L11.1097 0.038088C12.2034 0.0104487 13.2974 -0.00205202 14.3915 0.000589825L17.4753 0.00208964ZM15.9334 7.50171C14.9397 7.48765 13.9532 7.67123 13.031 8.04178C12.1089 8.41233 11.2696 8.96245 10.562 9.66018C9.85431 10.3579 9.29237 11.1893 8.90882 12.1061C8.52527 13.0229 8.32776 14.0068 8.32776 15.0006C8.32776 15.9944 8.52527 16.9782 8.90882 17.895C9.29237 18.8118 9.85431 19.6432 10.562 20.341C11.2696 21.0387 12.1089 21.5888 13.031 21.9594C13.9532 22.3299 14.9397 22.5135 15.9334 22.4994C17.9225 22.4994 19.83 21.7093 21.2365 20.3029C22.6429 18.8964 23.433 16.9888 23.433 14.9998C23.433 13.0108 22.6429 11.1032 21.2365 9.69679C19.83 8.29034 17.9225 7.50171 15.9334 7.50171ZM15.9334 10.5016C16.5312 10.4905 17.1251 10.5987 17.6805 10.8198C18.236 11.0409 18.7418 11.3705 19.1684 11.7893C19.5951 12.2081 19.934 12.7077 20.1654 13.2589C20.3968 13.8102 20.516 14.402 20.5161 14.9998C20.5162 15.5976 20.3972 16.1895 20.166 16.7408C19.9348 17.2921 19.596 17.7918 19.1695 18.2108C18.743 18.6297 18.2373 18.9594 17.6819 19.1807C17.1266 19.402 16.5327 19.5104 15.9349 19.4996C14.7415 19.4996 13.597 19.0255 12.7531 18.1816C11.9092 17.3378 11.4352 16.1932 11.4352 14.9998C11.4352 13.8064 11.9092 12.6619 12.7531 11.818C13.597 10.9741 14.7415 10.5001 15.9349 10.5001L15.9334 10.5016ZM23.808 5.25182C23.3241 5.27119 22.8665 5.47703 22.531 5.82625C22.1955 6.17546 22.0081 6.64095 22.0081 7.12522C22.0081 7.6095 22.1955 8.07499 22.531 8.4242C22.8665 8.77341 23.3241 8.97926 23.808 8.99863C24.3053 8.99863 24.7822 8.80109 25.1338 8.44948C25.4854 8.09787 25.6829 7.62098 25.6829 7.12372C25.6829 6.62647 25.4854 6.14958 25.1338 5.79797C24.7822 5.44635 24.3053 5.24882 23.808 5.24882V5.25182Z" fill="black" fill-opacity="0.8"/>
</svg>
