<svg width="139" height="45" viewBox="0 0 139 45" fill="none" xmlns="http://www.w3.org/2000/svg">
<path d="M22.0949 27.16V34H17.9549V13.6H25.8749C30.6749 13.6 33.0749 15.84 33.0749 20.32C33.0749 22.98 32.0749 24.94 30.0749 26.2L32.9849 34H28.4549L26.0849 27.16H22.0949ZM25.9349 23.62C26.9149 23.62 27.6449 23.32 28.1249 22.72C28.6049 22.12 28.8449 21.33 28.8449 20.35C28.8449 19.37 28.5849 18.59 28.0649 18.01C27.5649 17.43 26.8349 17.14 25.8749 17.14H22.0949V23.62H25.9349ZM39.264 28.21C39.284 29.13 39.524 29.8 39.984 30.22C40.464 30.62 41.144 30.82 42.024 30.82C43.884 30.82 45.544 30.76 47.004 30.64L47.844 30.55L47.904 33.52C45.604 34.08 43.524 34.36 41.664 34.36C39.404 34.36 37.764 33.76 36.744 32.56C35.724 31.36 35.214 29.41 35.214 26.71C35.214 21.33 37.424 18.64 41.844 18.64C46.204 18.64 48.384 20.9 48.384 25.42L48.084 28.21H39.264ZM44.424 25.15C44.424 23.95 44.234 23.12 43.854 22.66C43.474 22.18 42.804 21.94 41.844 21.94C40.904 21.94 40.234 22.19 39.834 22.69C39.454 23.17 39.254 23.99 39.234 25.15H44.424ZM49.817 19H54.107L56.507 23.65L58.937 19H63.227L58.967 26.35L63.227 34H58.937L56.507 29.41L54.107 34H49.817L53.927 26.47L49.817 19ZM65.983 20.71C67.043 19.33 68.813 18.64 71.293 18.64C73.773 18.64 75.543 19.33 76.603 20.71C77.663 22.07 78.193 23.99 78.193 26.47C78.193 31.73 75.893 34.36 71.293 34.36C66.693 34.36 64.393 31.73 64.393 26.47C64.393 23.99 64.923 22.07 65.983 20.71ZM69.073 29.86C69.493 30.58 70.233 30.94 71.293 30.94C72.353 30.94 73.083 30.58 73.483 29.86C73.903 29.14 74.113 28.01 74.113 26.47C74.113 24.93 73.903 23.81 73.483 23.11C73.083 22.41 72.353 22.06 71.293 22.06C70.233 22.06 69.493 22.41 69.073 23.11C68.673 23.81 68.473 24.93 68.473 26.47C68.473 28.01 68.673 29.14 69.073 29.86Z" fill="black"/>
<path d="M105.472 28.1C105.755 28.1 105.897 28.4833 105.897 29.25C105.897 29.6667 105.722 30.175 105.372 30.775C105.022 31.3583 104.564 31.9 103.997 32.4C103.447 32.8833 102.83 33.2833 102.147 33.6C101.464 33.9167 100.797 34.075 100.147 34.075C99.1636 34.075 98.4803 33.8333 98.097 33.35C97.7303 32.85 97.547 32.125 97.547 31.175C97.547 30.2083 97.922 28.5583 98.672 26.225C96.372 26.125 94.697 26.075 93.647 26.075H93.297C92.997 27.925 92.847 29.8667 92.847 31.9C92.847 32.8 92.5053 33.4167 91.822 33.75C91.5053 33.9 91.197 34.0417 90.897 34.175C90.6136 34.3083 90.3053 34.375 89.972 34.375C89.1386 34.375 88.722 33.625 88.722 32.125C88.722 30.625 89.0636 28.7 89.747 26.35C89.0136 26.4333 88.3636 26.5167 87.797 26.6C87.247 26.6833 86.8136 26.725 86.497 26.725C86.1803 26.725 86.022 26.6417 86.022 26.475C86.022 25.975 86.4303 25.4667 87.247 24.95C88.0803 24.4333 89.2053 24.0417 90.622 23.775C92.1886 19.7917 94.1053 17.1333 96.372 15.8C97.2053 15.3 98.0886 15.05 99.022 15.05C100.689 15.0667 101.889 15.5167 102.622 16.4C103.372 17.2833 103.747 18.4583 103.747 19.925C103.764 21.375 103.322 23.2667 102.422 25.6C102.089 26.5 101.78 27.3167 101.497 28.05C101.214 28.7833 101.072 29.375 101.072 29.825C101.072 30.275 101.105 30.6167 101.172 30.85C101.239 31.0833 101.397 31.2 101.647 31.2C102.097 31.2 103.155 30.3333 104.822 28.6C105.122 28.2667 105.339 28.1 105.472 28.1ZM100.147 20.65C100.147 19.2 99.6053 18.475 98.522 18.475C97.422 18.475 96.472 18.9417 95.672 19.875C94.8886 20.7917 94.2803 22.025 93.847 23.575L99.522 23.65C99.9386 22.3167 100.147 21.3167 100.147 20.65ZM108.305 29.8L108.455 32.85C108.455 33.25 108.246 33.6083 107.83 33.925C107.413 34.2417 106.846 34.4 106.13 34.4C105.713 34.4 105.421 34.1833 105.255 33.75C105.105 33.3167 105.03 32.6833 105.03 31.85C105.03 30.1 105.113 28.7333 105.28 27.75C105.463 26.75 105.813 25.7417 106.33 24.725C105.563 23.9917 105.18 23.3583 105.18 22.825C105.18 21.7083 105.78 21.15 106.98 21.15C107.596 21.15 108.138 21.475 108.605 22.125C108.938 22.575 109.18 23.1 109.33 23.7C109.563 23.7833 109.855 23.825 110.205 23.825C110.688 23.825 111.246 23.6667 111.88 23.35L112.53 23.025C112.73 22.925 112.905 22.875 113.055 22.875C113.538 22.875 114.021 23.5833 114.505 25C114.355 25.65 114.188 26.275 114.005 26.875C113.838 27.475 113.638 28.2 113.405 29.05C113.171 29.9 113.046 30.475 113.03 30.775C113.03 31.0583 113.121 31.2 113.305 31.2C113.555 31.2 113.863 31.0417 114.23 30.725C114.596 30.4083 114.963 30.0667 115.33 29.7C115.696 29.3167 116.03 28.9667 116.33 28.65C116.646 28.3333 116.863 28.175 116.98 28.175C117.213 28.175 117.33 28.4583 117.33 29.025C117.33 30.175 116.821 31.3083 115.805 32.425C114.805 33.5417 113.655 34.0917 112.355 34.075C111.588 34.075 111.013 33.7667 110.63 33.15C110.246 32.5333 110.046 31.7833 110.03 30.9C110.03 29.15 110.421 27.4917 111.205 25.925C110.838 26.075 110.421 26.15 109.955 26.15C109.505 26.15 109.18 26.1333 108.98 26.1C108.83 26.7333 108.68 27.375 108.53 28.025C108.38 28.6583 108.305 29.25 108.305 29.8ZM117.181 32.65C116.997 32.2 116.864 31.6833 116.781 31.1C116.697 30.5 116.656 29.6667 116.656 28.6C116.656 27.5333 116.856 26.0917 117.256 24.275H116.131C115.931 24.275 115.831 24.1917 115.831 24.025C115.831 23.625 115.864 23.3 115.931 23.05C116.014 22.7833 116.197 22.4833 116.481 22.15H117.081C117.314 22.15 117.564 22.1417 117.831 22.125C118.631 19.5583 119.447 18.275 120.281 18.275C120.947 18.2917 121.414 18.7167 121.681 19.55C121.747 19.7833 121.822 20.0333 121.906 20.3L120.881 22.1C122.047 22.1333 122.781 22.15 123.081 22.15C123.397 22.15 123.564 22.1833 123.581 22.25C123.614 22.3 123.631 22.3833 123.631 22.5C123.631 22.8 123.556 23.175 123.406 23.625C123.272 24.075 123.114 24.2917 122.931 24.275L120.431 24.15C120.081 26.1833 119.906 27.8667 119.906 29.2C119.906 30.5333 120.097 31.2 120.481 31.2C120.797 31.2 121.372 30.9417 122.206 30.425C123.039 29.8917 123.639 29.3833 124.006 28.9C124.372 28.4167 124.672 28.175 124.906 28.175C125.139 28.175 125.256 28.4583 125.256 29.025C125.256 29.5917 125.056 30.175 124.656 30.775C124.256 31.3583 123.747 31.9 123.131 32.4C122.531 32.8833 121.856 33.2833 121.106 33.6C120.372 33.9167 119.731 34.075 119.181 34.075C118.631 34.075 118.206 33.95 117.906 33.7C117.622 33.4333 117.381 33.0833 117.181 32.65Z" fill="#EF5C2C"/>
</svg>
