<svg width="26" height="26" viewBox="0 0 26 26" fill="none" xmlns="http://www.w3.org/2000/svg">
<path d="M0.5 3.625C0.5 1.90137 1.90137 0.5 3.625 0.5H17.6875C19.4111 0.5 20.8125 1.90137 20.8125 3.625V6.75C20.8125 8.47363 19.4111 9.875 17.6875 9.875H3.625C1.90137 9.875 0.5 8.47363 0.5 6.75V3.625ZM8.3125 17.6875C8.3125 16.8232 9.01074 16.125 9.875 16.125V15.3438C9.875 13.1855 11.623 11.4375 13.7812 11.4375H20.8125C21.6768 11.4375 22.375 10.7393 22.375 9.875V3.89355C24.1963 4.53809 25.5 6.27148 25.5 8.3125V9.875C25.5 12.4629 23.4004 14.5625 20.8125 14.5625H13.7812C13.3516 14.5625 13 14.9141 13 15.3438V16.125C13.8643 16.125 14.5625 16.8232 14.5625 17.6875V23.9375C14.5625 24.8018 13.8643 25.5 13 25.5H9.875C9.01074 25.5 8.3125 24.8018 8.3125 23.9375V17.6875Z" fill="black" fill-opacity="0.8"/>
</svg>
