<svg width="32" height="37" viewBox="0 0 32 37" fill="none" xmlns="http://www.w3.org/2000/svg">
<path d="M24.3442 17.1609C24.193 17.089 24.0404 17.0203 23.8865 16.9546C23.6177 11.9943 20.908 9.15527 16.3574 9.12621H16.2964C13.5736 9.12621 11.3114 10.2886 9.91806 12.4026L12.42 14.1185C13.4603 12.5391 15.0934 12.2021 16.2979 12.2021H16.3385C17.8365 12.2122 18.9683 12.6481 19.6991 13.4981C20.2324 14.1156 20.5883 14.9713 20.7641 16.0494C19.343 15.8186 17.9003 15.7489 16.4635 15.8416C12.1381 16.0915 9.35577 18.6138 9.5432 22.1197C9.63764 23.8981 10.5239 25.428 12.0379 26.4276C13.3164 27.2732 14.9655 27.6859 16.68 27.5929C18.9422 27.4679 20.7162 26.6049 21.9541 25.027C22.8956 23.8284 23.4898 22.2752 23.7528 20.3181C24.8309 20.969 25.63 21.8248 26.0717 22.8535C26.8228 24.6042 26.8664 27.4796 24.52 29.8231C22.4641 31.8776 19.9926 32.7653 16.2586 32.7929C12.1163 32.7639 8.98237 31.4344 6.94537 28.8453C5.03768 26.4189 4.0526 22.9174 4.01627 18.4351C4.0526 13.9528 5.03768 10.4498 6.94537 8.02489C8.98237 5.43578 12.1149 4.10781 16.2586 4.0773C20.43 4.10635 23.6177 5.44305 25.7331 8.04378C26.7705 9.3209 27.5522 10.9249 28.068 12.7948L31 12.0132C30.3752 9.71029 29.3916 7.72704 28.0549 6.08088C25.3423 2.74351 21.3758 1.03487 16.2688 1H16.2485C11.1472 1.03487 7.22869 2.75077 4.59454 6.09977C2.24952 9.07826 1.04068 13.2264 1 18.4235V18.4467C1.04068 23.6453 2.24952 27.7905 4.59308 30.7704C7.22724 34.1194 11.1487 35.8353 16.2485 35.8702H16.2688C20.8019 35.8382 23.9969 34.6512 26.6281 32.0214C30.073 28.5809 29.9699 24.2686 28.8337 21.6214C28.0201 19.7224 26.4669 18.1808 24.3442 17.1609ZM16.5172 24.52C14.6212 24.6275 12.6525 23.7761 12.5537 21.9541C12.481 20.6029 13.5155 19.0933 16.6335 18.9146C16.9909 18.8928 17.3411 18.8841 17.6854 18.8841C18.8187 18.8841 19.8764 18.993 20.8397 19.2037C20.4808 23.6903 18.3741 24.4182 16.5172 24.52Z" fill="black" fill-opacity="0.8"/>
<path d="M24.4524 16.9355L24.4515 16.9351C24.344 16.884 24.2358 16.8344 24.1269 16.7864C23.9681 14.3374 23.2133 12.378 21.908 11.0181C20.5726 9.62675 18.688 8.89109 16.359 8.87621H16.3574H16.2964C13.4971 8.87621 11.1529 10.0747 9.70932 12.265L9.57425 12.4699L9.77666 12.6087L12.2786 14.3246L12.4887 14.4687L12.6288 14.256C13.6029 12.777 15.1335 12.4521 16.2979 12.4521H16.3377C17.7888 12.4621 18.8406 12.883 19.5096 13.6611L19.5099 13.6615C19.9493 14.1702 20.2685 14.8651 20.4541 15.7491C19.1281 15.5585 17.7857 15.5059 16.4482 15.5921C14.2426 15.7197 12.4072 16.4279 11.1431 17.5745C9.87468 18.725 9.19584 20.3048 9.29355 22.133C9.39229 23.9923 10.3214 25.5939 11.9 26.6362C13.2288 27.515 14.9324 27.938 16.6935 27.8425L16.6938 27.8425C19.0174 27.7142 20.8624 26.8235 22.1508 25.1813C23.0628 24.0202 23.6523 22.548 23.9437 20.7374C24.8216 21.3354 25.4685 22.0823 25.842 22.9521C26.559 24.6234 26.6067 27.3856 24.3433 29.6462L24.3432 29.6463C22.3463 31.6418 19.9456 32.5154 16.2587 32.5429C12.172 32.5139 9.11983 31.2048 7.1419 28.6908C5.28113 26.3241 4.30263 22.8852 4.26628 18.4351C4.30263 13.9849 5.28115 10.5447 7.14185 8.17948C9.11974 5.6655 12.1704 4.35778 16.2587 4.3273C20.3742 4.35635 23.4823 5.6728 25.5392 8.20154C26.5507 9.44685 27.3185 11.018 27.827 12.8613L27.8929 13.1003L28.1324 13.0364L31.0644 12.2547L31.307 12.1901L31.2413 11.9477C30.6086 9.61549 29.6103 7.59981 28.249 5.92329L28.2489 5.9232C25.4802 2.51677 21.4366 0.785279 16.2705 0.750006V0.75H16.2688L16.2485 0.749994L16.2467 0.750006C11.0861 0.785282 7.08869 2.52445 4.39811 5.94512C2.00803 8.98084 0.790964 13.1894 0.750008 18.4215H0.75V18.4235L0.749992 18.4467L0.750008 18.4487C0.790964 23.6824 2.00805 27.8879 4.39657 30.925L4.39658 30.925C7.08718 34.3458 11.0876 36.0849 16.2467 36.1202H16.2485L16.2688 36.1202L16.2706 36.1202C20.8541 36.0879 24.1174 34.8842 26.8048 32.1983C30.3354 28.6722 30.232 24.2455 29.0634 21.5228C28.2226 19.5604 26.6213 17.9777 24.4524 16.9355ZM16.5036 24.2703L16.5031 24.2704C15.5926 24.322 14.6771 24.1419 13.9863 23.7439C13.3018 23.3496 12.8472 22.7499 12.8033 21.9407C12.7709 21.3373 12.9835 20.6971 13.5632 20.1814C14.1473 19.662 15.1245 19.2515 16.6478 19.1642L16.6487 19.1641C17.0003 19.1427 17.3453 19.1341 17.6854 19.1341C18.7186 19.1341 19.6854 19.2259 20.5713 19.4029C20.3731 21.4753 19.7856 22.6503 19.069 23.324C18.328 24.0206 17.4076 24.2208 16.5036 24.2703Z" stroke="black" stroke-opacity="0.8" stroke-width="0.5"/>
</svg>
